{"title":"[ShepardTDS] Expelled from Paradise Dual Audio [720p 8-bit x265","uid":12812014,"size":1028383354,"categoryP":"video","categoryS":"tv_shows","magnet":"?xt=urn:btih:6ac9b1efbd5db362d16103e1967f4f72505e80c9&amp;dn=%5BShepardTDS%5D+Expelled+from+Paradise+Dual+Audio+%5B720p+8-bit+x265+&amp;tr=udp%3A%2F%2Ftracker.leechers-paradise.org%3A6969&amp;tr=udp%3A%2F%2Fzer0day.ch%3A1337&amp;tr=udp%3A%2F%2Fopen.demonii.com%3A1337&amp;tr=udp%3A%2F%2Ftracker.coppersurfer.tk%3A6969&amp;tr=udp%3A%2F%2Fexodus.desync.com%3A6969","seeders":2,"leechers":1,"uploader":"ShepardTDS","files":2,"time":1448193336,"description":"Constant Quality encoding.\r\nVariable Bit rates\r\nBlu-Ray Source\r\n\r\nGeneral\r\n\r\nFormat : Matroska\r\nFile size : 981 MiB\r\nDuration : 1h 43mn\r\nOverall bit rate : 1 323 Kbps\r\nEncoded date : UTC 2015-11-21 12:26:51\r\nWriting application : mkvmerge v7.7.0 ('Six Voices') 32bit built on Feb 28 2015 23:23:00\r\nWriting library : libebml v1.3.1 + libmatroska v1.4.2\r\n\r\nVideo\r\nID : 1\r\nFormat : V_MPEGH/ISO/HEVC\r\nCodec ID : V_MPEGH/ISO/HEVC\r\nDuration : 1h 43mn\r\nBit rate : 913 Kbps\r\nWidth : 1 280 pixels\r\nHeight : 720 pixels\r\nDisplay aspect ratio : 16:9\r\nFrame rate : 23.976 fps\r\nBits/(Pixel*Frame) : 0.041\r\nStream size : 677 MiB (69%)\r\n\r\nAudio #1\r\nID : 2\r\nFormat : AC-3\r\nFormat/Info : Audio Coding 3\r\nMode extension : CM (complete main)\r\nCodec ID : A_AC3\r\nDuration : 1h 43mn\r\nBit rate mode : Constant\r\nBit rate : 192 Kbps\r\nChannel(s) : 6 channels\r\nChannel positions : Front: L C R, Side: L R, LFE\r\nSampling rate : 48.0 KHz\r\nBit depth : 16 bits\r\nCompression mode : Lossy\r\nStream size : 142 MiB (15%)\r\nLanguage : English\r\n\r\nAudio #2\r\nID : 3\r\nFormat : AC-3\r\nFormat/Info : Audio Coding 3\r\nMode extension : CM (complete main)\r\nCodec ID : A_AC3\r\nDuration : 1h 43mn\r\nBit rate mode : Constant\r\nBit rate : 192 Kbps\r\nChannel(s) : 6 channels\r\nChannel positions : Front: L C R, Side: L R, LFE\r\nSampling rate : 48.0 KHz\r\nBit depth : 16 bits\r\nCompression mode : Lossy\r\nStream size : 142 MiB (15%)\r\nLanguage : Japanese\r\n\r\nText\r\nID : 4\r\nFormat : ASS\r\nCodec ID : S_TEXT/ASS\r\nCodec ID/Info : Advanced Sub Station Alpha\r\nCompression mode : Lossless\r\nTitle : English Subtitles\r\nLanguage : English\r\n\r\nMenu\r\n00:00:00.000 : en:Chapter 01\r\n00:05:27.953 : en:Chapter 02\r\n00:07:50.553 : en:Chapter 03\r\n00:20:42.825 : en:Chapter 04\r\n00:25:26.984 : en:Chapter 05\r\n00:26:56.323 : en:Chapter 06\r\n00:30:19.568 : en:Chapter 07\r\n00:33:58.536 : en:Chapter 08\r\n00:36:29.312 : en:Chapter 09\r\n00:40:12.702 : en:Chapter 10\r\n00:43:34.737 : en:Chapter 11\r\n00:47:35.478 : en:Chapter 12\r\n00:50:44.333 : en:Chapter 13\r\n00:56:13.328 : en:Chapter 14\r\n00:58:20.372 : en:Chapter 15\r\n01:03:15.500 : en:Chapter 16\r\n01:05:57.954 : en:Chapter 17\r\n01:09:13.066 : en:Chapter 18\r\n01:11:54.310 : en:Chapter 19\r\n01:15:52.381 : en:Chapter 20\r\n01:20:23.569 : en:Chapter 21\r\n01:24:41.576 : en:Chapter 22\r\n01:29:56.141 : en:Chapter 23\r\n01:33:40.365 : en:Chapter 24\r\n01:35:50.244 : en:Chapter 25\r\n01:37:41.022 : en:Chapter 26\r\n01:38:37.328 : en:Chapter 27\r\n01:41:58.112 : en:Chapter 28\r\n01:42:30.144 : en:Chapter 29","torrent":{"xt":"urn:btih:6ac9b1efbd5db362d16103e1967f4f72505e80c9","amp;dn":"%5BShepardTDS%5D+Expelled+from+Paradise+Dual+Audio+%5B720p+8-bit+x265+","amp;tr":["udp%3A%2F%2Ftracker.leechers-paradise.org%3A6969","udp%3A%2F%2Fzer0day.ch%3A1337","udp%3A%2F%2Fopen.demonii.com%3A1337","udp%3A%2F%2Ftracker.coppersurfer.tk%3A6969","udp%3A%2F%2Fexodus.desync.com%3A6969"],"infoHash":"6ac9b1efbd5db362d16103e1967f4f72505e80c9","infoHashBuffer":{"type":"Buffer","data":[106,201,177,239,189,93,179,98,209,97,3,225,150,127,79,114,80,94,128,201]},"announce":[],"urlList":[]}}